<svg xmlns="http://www.w3.org/2000/svg" viewBox="0 0 1400 900" width="1400" height="900" role="img" aria-label="Wyzwanie dnia — wspólny układ na 24 godziny">
<title>Wyzwanie dnia — wspólny układ na 24 godziny</title>
<desc>Kalendarz wyzwań dnia i odliczanie do resetu.</desc>
<defs>
  <linearGradient id="bgrad-daily" x1="0%" y1="0%" x2="100%" y2="100%">
    <stop offset="0%" stop-color="#111a30"/>
    <stop offset="100%" stop-color="#070a12"/>
  </linearGradient>
  <linearGradient id="pulse-daily" gradientUnits="userSpaceOnUse" x1="0" y1="0" x2="1400" y2="900">
    <stop offset="0%" stop-color="#4cf1e0"/>
    <stop offset="100%" stop-color="#b39bff"/>
  </linearGradient>
  <filter id="glow-daily" filterUnits="userSpaceOnUse" x="-40" y="-40" width="1480" height="980">
    <feGaussianBlur stdDeviation="5" result="blur"/>
    <feMerge>
      <feMergeNode in="blur"/>
      <feMergeNode in="SourceGraphic"/>
    </feMerge>
  </filter>
</defs>
<rect width="1400" height="900" fill="url(#bgrad-daily)"/>
<rect x="110" y="140" width="80" height="80" rx="16" fill="#111a30" stroke="#22315a"  opacity="0.85"/><rect x="204" y="140" width="80" height="80" rx="16" fill="#111a30" stroke="#22315a"  opacity="0.85"/><rect x="298" y="140" width="80" height="80" rx="16" fill="#111a30" stroke="#22315a"  opacity="0.85"/><rect x="392" y="140" width="80" height="80" rx="16" fill="#111a30" stroke="#22315a"  opacity="0.85"/><rect x="486" y="140" width="80" height="80" rx="16" fill="#111a30" stroke="#22315a"  opacity="0.85"/><rect x="580" y="140" width="80" height="80" rx="16" fill="#111a30" stroke="#22315a"  opacity="0.85"/><rect x="674" y="140" width="80" height="80" rx="16" fill="#111a30" stroke="#22315a"  opacity="0.85"/><rect x="110" y="234" width="80" height="80" rx="16" fill="#111a30" stroke="#22315a"  opacity="0.85"/><rect x="204" y="234" width="80" height="80" rx="16" fill="#111a30" stroke="#22315a"  opacity="0.85"/><rect x="298" y="234" width="80" height="80" rx="16" fill="#111a30" stroke="#22315a"  opacity="0.85"/><rect x="392" y="234" width="80" height="80" rx="16" fill="#111a30" stroke="#22315a"  opacity="0.85"/><rect x="486" y="234" width="80" height="80" rx="16" fill="#111a30" stroke="#22315a"  opacity="0.85"/><rect x="580" y="234" width="80" height="80" rx="16" fill="#111a30" stroke="#22315a"  opacity="0.85"/><rect x="674" y="234" width="80" height="80" rx="16" fill="#111a30" stroke="#22315a"  opacity="0.85"/><rect x="110" y="328" width="80" height="80" rx="16" fill="#111a30" stroke="#22315a"  opacity="0.85"/><rect x="204" y="328" width="80" height="80" rx="16" fill="#111a30" stroke="#22315a"  opacity="0.85"/><rect x="298" y="328" width="80" height="80" rx="16" fill="url(#pulse-daily)" stroke="none" filter="url(#glow-daily)" opacity="0.95"/><circle cx="338" cy="368" r="10" fill="#070a12"/><rect x="392" y="328" width="80" height="80" rx="16" fill="#111a30" stroke="#22315a"  opacity="0.85"/><rect x="486" y="328" width="80" height="80" rx="16" fill="#111a30" stroke="#22315a"  opacity="0.85"/><rect x="580" y="328" width="80" height="80" rx="16" fill="#111a30" stroke="#22315a"  opacity="0.85"/><rect x="674" y="328" width="80" height="80" rx="16" fill="#111a30" stroke="#22315a"  opacity="0.85"/><rect x="110" y="422" width="80" height="80" rx="16" fill="#111a30" stroke="#22315a"  opacity="0.85"/><rect x="204" y="422" width="80" height="80" rx="16" fill="#111a30" stroke="#22315a"  opacity="0.85"/><rect x="298" y="422" width="80" height="80" rx="16" fill="#111a30" stroke="#22315a"  opacity="0.85"/><rect x="392" y="422" width="80" height="80" rx="16" fill="#111a30" stroke="#22315a"  opacity="0.85"/><rect x="486" y="422" width="80" height="80" rx="16" fill="#111a30" stroke="#22315a"  opacity="0.85"/><rect x="580" y="422" width="80" height="80" rx="16" fill="#111a30" stroke="#22315a"  opacity="0.85"/><rect x="674" y="422" width="80" height="80" rx="16" fill="#111a30" stroke="#22315a"  opacity="0.85"/>
<line x1="944.0" y1="173.0" x2="944.0" y2="157.0" stroke="#7482a8" stroke-width="2" opacity="0.5"/><line x1="982.3" y1="178.0" x2="984.4" y2="170.3" stroke="#7482a8" stroke-width="2" opacity="0.5"/><line x1="1018.0" y1="192.8" x2="1022.0" y2="185.9" stroke="#7482a8" stroke-width="2" opacity="0.5"/><line x1="1048.7" y1="216.3" x2="1054.3" y2="210.7" stroke="#7482a8" stroke-width="2" opacity="0.5"/><line x1="1072.2" y1="247.0" x2="1079.1" y2="243.0" stroke="#7482a8" stroke-width="2" opacity="0.5"/><line x1="1087.0" y1="282.7" x2="1094.7" y2="280.6" stroke="#7482a8" stroke-width="2" opacity="0.5"/><line x1="1092.0" y1="321.0" x2="1108.0" y2="321.0" stroke="#7482a8" stroke-width="2" opacity="0.5"/><line x1="1087.0" y1="359.3" x2="1094.7" y2="361.4" stroke="#7482a8" stroke-width="2" opacity="0.5"/><line x1="1072.2" y1="395.0" x2="1079.1" y2="399.0" stroke="#7482a8" stroke-width="2" opacity="0.5"/><line x1="1048.7" y1="425.7" x2="1054.3" y2="431.3" stroke="#7482a8" stroke-width="2" opacity="0.5"/><line x1="1018.0" y1="449.2" x2="1022.0" y2="456.1" stroke="#7482a8" stroke-width="2" opacity="0.5"/><line x1="982.3" y1="464.0" x2="984.4" y2="471.7" stroke="#7482a8" stroke-width="2" opacity="0.5"/><line x1="944.0" y1="469.0" x2="944.0" y2="485.0" stroke="#7482a8" stroke-width="2" opacity="0.5"/><line x1="905.7" y1="464.0" x2="903.6" y2="471.7" stroke="#7482a8" stroke-width="2" opacity="0.5"/><line x1="870.0" y1="449.2" x2="866.0" y2="456.1" stroke="#7482a8" stroke-width="2" opacity="0.5"/><line x1="839.3" y1="425.7" x2="833.7" y2="431.3" stroke="#7482a8" stroke-width="2" opacity="0.5"/><line x1="815.8" y1="395.0" x2="808.9" y2="399.0" stroke="#7482a8" stroke-width="2" opacity="0.5"/><line x1="801.0" y1="359.3" x2="793.3" y2="361.4" stroke="#7482a8" stroke-width="2" opacity="0.5"/><line x1="796.0" y1="321.0" x2="780.0" y2="321.0" stroke="#7482a8" stroke-width="2" opacity="0.5"/><line x1="801.0" y1="282.7" x2="793.3" y2="280.6" stroke="#7482a8" stroke-width="2" opacity="0.5"/><line x1="815.8" y1="247.0" x2="808.9" y2="243.0" stroke="#7482a8" stroke-width="2" opacity="0.5"/><line x1="839.3" y1="216.3" x2="833.7" y2="210.7" stroke="#7482a8" stroke-width="2" opacity="0.5"/><line x1="870.0" y1="192.8" x2="866.0" y2="185.9" stroke="#7482a8" stroke-width="2" opacity="0.5"/><line x1="905.7" y1="178.0" x2="903.6" y2="170.3" stroke="#7482a8" stroke-width="2" opacity="0.5"/>
<circle cx="944" cy="321" r="130" fill="none" stroke="#22315a" stroke-width="14"/>
<circle cx="944" cy="321" r="130" fill="none" stroke="url(#pulse-daily)" stroke-width="14" stroke-linecap="round"
  stroke-dasharray="816.8" stroke-dashoffset="310.4"
  transform="rotate(-90 944 321)" filter="url(#glow-daily)"/>
<text x="944" y="315" text-anchor="middle" font-family="sans-serif" font-size="34" font-weight="700" fill="#eef2fb">1× / 24h</text>
<text x="944" y="349" text-anchor="middle" font-family="sans-serif" font-size="15" fill="#7482a8">nowy układ siatki</text>
<text x="110" y="100" font-family="sans-serif" font-size="20" font-weight="700" fill="#eef2fb">Wyzwanie dnia</text>
</svg>